<svg width="47" height="36" viewBox="0 0 47 36" fill="none" xmlns="http://www.w3.org/2000/svg">
<path fill-rule="evenodd" clip-rule="evenodd" d="M14.9224 0H32.4121C40.4603 0 46.9869 4.97414 46.9869 11.108V24.4375C46.9869 30.5713 40.4603 35.5455 32.4121 35.5455H14.9224C6.87423 35.5455 0.347656 30.5713 0.347656 24.4375V11.108C0.347656 4.97414 6.87423 0 14.9224 0ZM32.4159 32.2131C38.0418 32.2131 42.6182 28.7252 42.6182 24.4375V11.1079C42.6182 6.82027 38.0418 3.33237 32.4159 3.33237H14.9262C9.30036 3.33237 4.72389 6.82027 4.72389 11.1079V24.4375C4.72389 28.7252 9.30036 32.2131 14.9262 32.2131H32.4159Z" fill="black"/>
</svg>
