<svg width="30" height="30" viewBox="0 0 30 30" fill="none" xmlns="http://www.w3.org/2000/svg">
<path d="M15 1.66666C12.3629 1.66666 9.78508 2.44865 7.59242 3.91374C5.39977 5.37882 3.6908 7.4612 2.68163 9.89755C1.67246 12.3339 1.40842 15.0148 1.92289 17.6012C2.43736 20.1876 3.70724 22.5634 5.57194 24.4281C7.43664 26.2928 9.81241 27.5627 12.3988 28.0771C14.9852 28.5916 17.6661 28.3276 20.1025 27.3184C22.5388 26.3092 24.6212 24.6003 26.0863 22.4076C27.5514 20.2149 28.3334 17.6371 28.3334 15C28.3334 11.4638 26.9286 8.07239 24.4281 5.57191C21.9276 3.07142 18.5362 1.66666 15 1.66666ZM23.7084 10.525L12.7584 21.4667L6.29169 15C6.07068 14.779 5.94652 14.4792 5.94652 14.1667C5.94652 13.8541 6.07068 13.5543 6.29169 13.3333C6.51271 13.1123 6.81247 12.9882 7.12503 12.9882C7.43759 12.9882 7.73735 13.1123 7.95836 13.3333L12.775 18.15L22.0584 8.875C22.1678 8.76556 22.2977 8.67875 22.4407 8.61953C22.5837 8.5603 22.7369 8.52982 22.8917 8.52982C23.0465 8.52982 23.1997 8.5603 23.3427 8.61953C23.4857 8.67875 23.6156 8.76556 23.725 8.875C23.8345 8.98443 23.9213 9.11435 23.9805 9.25733C24.0397 9.40032 24.0702 9.55357 24.0702 9.70833C24.0702 9.8631 24.0397 10.0163 23.9805 10.1593C23.9213 10.3023 23.8345 10.4322 23.725 10.5417L23.7084 10.525Z" fill="#4ECB71"/>
</svg>
